#N canvas 315 25 680 607 10;
#X obj 35 485 dac~;
#X obj 34 449 *~;
#X obj 559 432 line~;
#X obj 559 410 pack 0 10;
#X obj 559 255 vsl 65 128 0 1 0 1 empty empty Styrkur 0 -9 0 10 -24198
-1 -1 10000 1;
#X floatatom 559 391 5 0 0 0 - - -;
#X obj 5 8 cnv 15 666 77 empty empty empty 20 12 0 14 -258699 -66577
0;
#X obj 343 210 vsl 65 128 0 100 0 1 empty empty VitaHringur 0 -9 0
10 -62784 -1 -1 12700 1;
#X obj 36 110 adc~;
#N canvas 485 128 279 236 frumstilling 0;
#X obj 76 61 loadbang;
#X msg 76 122 \; pd dsp 1;
#X connect 0 0 1 0;
#X restore 563 97 pd frumstilling;
#N canvas 537 253 326 339 styrk 0;
#X obj 41 21 inlet~;
#X obj 42 72 env~ 8094;
#X floatatom 42 103 5 0 0 0 - - -;
#X obj 42 130 - 100;
#X floatatom 42 169 5 0 0 0 - - -;
#X obj 109 128 vu 15 120 empty empty -1 -8 0 8 -66577 -1 1 0;
#X connect 0 0 1 0;
#X connect 1 0 2 0;
#X connect 2 0 3 0;
#X connect 3 0 4 0;
#X connect 4 0 5 0;
#X coords 0 -1 1 1 55 155 1 100 100;
#X restore 63 158 pd styrk;
#X floatatom 343 363 5 0 0 0 - - -;
#X obj 8 523 cnv 15 666 77 empty empty empty 20 12 0 14 -258699 -66577
0;
#X text 382 581 (cc) Aki Asgeirsson 2008 - aki@slatur.is;
#X text 478 546 Toelvutonlist med PureData;
#X text 575 530 GarnaFlaekja;
#X text 42 536 G;
#X text 34 539 G;
#X text 51 536 G;
#X text 59 539 G;
#X text 31 546 G;
#X text 30 554 G;
#X text 30 563 G;
#X text 34 572 G;
#X text 48 576 G;
#X text 41 575 G;
#X text 56 576 G;
#X text 56 567 G;
#X text 66 559 G;
#X text 57 559 G;
#X text 49 559 G;
#X text 284 564 nidurhal: slatur.is -> gagnasafn -> pd -> garnaflaekja
;
#N canvas 37 53 958 610 delay 0;
#X obj 13 19 inlet~;
#X obj 388 564 outlet~;
#X obj 639 36 inlet;
#X obj 639 143 min 100;
#X obj 639 166 max 0;
#X obj 17 553 delwrite~ diley 2000;
#X obj 243 205 vd~ diley;
#X obj 242 153 line~;
#X obj 242 31 inlet;
#X floatatom 242 67 5 0 0 0 - - -;
#X obj 87 504 *~;
#X obj 638 486 line~;
#X obj 639 299 pack 0 22;
#X obj 639 218 / 100;
#X floatatom 639 111 5 0 0 0 - - -;
#X obj 241 119 pack 0 200;
#X connect 0 0 5 0;
#X connect 2 0 14 0;
#X connect 3 0 4 0;
#X connect 4 0 13 0;
#X connect 6 0 1 0;
#X connect 6 0 10 0;
#X connect 7 0 6 0;
#X connect 8 0 9 0;
#X connect 9 0 15 0;
#X connect 10 0 5 0;
#X connect 11 0 10 1;
#X connect 12 0 11 0;
#X connect 13 0 12 0;
#X connect 14 0 3 0;
#X connect 15 0 7 0;
#X restore 35 377 pd delay;
#X obj 186 208 vsl 65 128 22 1666 0 1 empty empty Timi 0 -9 0 10 -62784
-1 -1 3600 1;
#X floatatom 186 363 5 0 0 0 - - -;
#X text 16 17 BergMal;
#X text 16 47 Hljodid heyrist aftur stuttu seinna...;
#X connect 1 0 0 0;
#X connect 1 0 0 1;
#X connect 2 0 1 1;
#X connect 3 0 2 0;
#X connect 4 0 5 0;
#X connect 5 0 3 0;
#X connect 7 0 11 0;
#X connect 8 0 10 0;
#X connect 8 0 32 0;
#X connect 11 0 32 2;
#X connect 32 0 1 0;
#X connect 33 0 34 0;
#X connect 34 0 32 1;
