#N canvas 255 27 680 607 10;
#X obj 35 485 dac~;
#X obj 34 449 *~;
#X obj 559 432 line~;
#X obj 559 410 pack 0 10;
#X obj 559 255 vsl 65 128 0 1 0 1 empty empty Styrkur 0 -9 0 10 -24198
-1 -1 12700 1;
#X floatatom 559 391 5 0 0 0 - - -;
#X obj 34 427 *~;
#X obj 5 8 cnv 15 666 77 empty empty empty 20 12 0 14 -258699 -66577
0;
#X obj 232 388 line~;
#X obj 232 366 pack 0 10;
#X obj 232 410 osc~;
#X obj 232 211 vsl 65 128 0.5 1000 1 1 empty empty BreytiTidni 0 -9
0 10 -62784 -1 -1 9800 1;
#X obj 34 124 adc~;
#N canvas 485 128 279 236 frumstilling 0;
#X obj 76 61 loadbang;
#X msg 76 122 \; pd dsp 1;
#X connect 0 0 1 0;
#X restore 560 115 pd frumstilling;
#N canvas 537 253 326 339 styrk 0;
#X obj 41 21 inlet~;
#X obj 42 72 env~ 8094;
#X floatatom 42 103 5 0 0 0 - - -;
#X obj 42 130 - 100;
#X floatatom 42 169 5 0 0 0 - - -;
#X obj 109 128 vu 15 120 empty empty -1 -8 0 8 -66577 -1 1 0;
#X connect 0 0 1 0;
#X connect 1 0 2 0;
#X connect 2 0 3 0;
#X connect 3 0 4 0;
#X connect 4 0 5 0;
#X coords 0 -1 1 1 55 155 1 100 100;
#X restore 58 165 pd styrk;
#X floatatom 232 347 5 0 0 0 - - -;
#X text 16 36 Hljodmerki er styrkbreytt med sinusbylgju;
#X obj 8 523 cnv 15 666 77 empty empty empty 20 12 0 14 -258699 -66577
0;
#X text 382 581 (cc) Aki Asgeirsson 2008 - aki@slatur.is;
#X text 478 546 Toelvutonlist med PureData;
#X text 575 530 GarnaFlaekja;
#X text 16 17 HringBreyting (Ring Modulation);
#X text 42 536 G;
#X text 34 539 G;
#X text 51 536 G;
#X text 59 539 G;
#X text 31 546 G;
#X text 30 554 G;
#X text 30 563 G;
#X text 34 572 G;
#X text 48 576 G;
#X text 41 575 G;
#X text 56 576 G;
#X text 56 567 G;
#X text 66 559 G;
#X text 57 559 G;
#X text 49 559 G;
#X text 284 564 nidurhal: slatur.is -> gagnasafn -> pd -> garnaflaekja
;
#X connect 1 0 0 0;
#X connect 1 0 0 1;
#X connect 2 0 1 1;
#X connect 3 0 2 0;
#X connect 4 0 5 0;
#X connect 5 0 3 0;
#X connect 6 0 1 0;
#X connect 8 0 10 0;
#X connect 9 0 8 0;
#X connect 10 0 6 1;
#X connect 11 0 15 0;
#X connect 12 0 6 0;
#X connect 12 0 14 0;
#X connect 15 0 9 0;
