#N canvas 249 53 680 607 10;
#X obj 36 485 dac~;
#X obj 35 449 *~;
#X obj 559 433 line~;
#X obj 559 410 pack 0 10;
#X obj 559 253 vsl 65 128 0 1 0 1 empty empty Styrkur 0 -9 0 10 -24198
-1 -1 0 1;
#X floatatom 559 390 5 0 0 0 - - -;
#X obj 5 8 cnv 15 666 77 empty empty empty 20 12 0 14 -258699 -66577
0;
#N canvas 485 128 279 236 frumstilling 0;
#X obj 76 61 loadbang;
#X msg 76 122 \; pd dsp 1;
#X connect 0 0 1 0;
#X restore 560 115 pd frumstilling;
#X obj 8 523 cnv 15 666 77 empty empty empty 20 12 0 14 -258699 -66577
0;
#X text 382 581 (cc) Aki Asgeirsson 2008 - aki@slatur.is;
#X text 478 546 Toelvutonlist med PureData;
#X text 575 530 GarnaFlaekja;
#X obj 402 147 vsl 32 193 0 100 0 1 empty empty halka 0 -9 0 10 -62784
-1 -1 1400 1;
#X text 16 17 Randver;
#X text 16 37 Sjalfspilandi slembitonlist;
#N canvas 131 87 806 564 hljodgervill 0;
#X obj 26 43 inlet;
#X floatatom 26 67 5 0 0 0 - - -;
#X obj 230 44 inlet;
#X floatatom 230 68 5 0 0 0 - - -;
#X text 276 69 lengd (duration);
#X text 71 67 nota (MIDI noteon);
#X obj 53 524 outlet~;
#X obj 19 418 osc~;
#X obj 427 45 inlet;
#X text 473 70 halka (glissando);
#X obj 26 165 poly 4 1;
#X obj 26 192 pack 0 0 0;
#X obj 32 290 unpack 0 0;
#X obj 53 463 *~;
#X obj 129 383 line~;
#X obj 129 361 pack 0 10;
#X floatatom 129 342 5 0 0 0 - - -;
#X obj 17 341 mtof;
#X obj 18 395 line~;
#X obj 17 367 pack 0 1;
#X floatatom 18 318 5 0 0 0 - - -;
#X obj 219 414 osc~;
#X obj 232 286 unpack 0 0;
#X obj 253 459 *~;
#X obj 329 379 line~;
#X obj 329 357 pack 0 10;
#X floatatom 329 338 5 0 0 0 - - -;
#X obj 217 337 mtof;
#X obj 218 391 line~;
#X obj 217 363 pack 0 1;
#X floatatom 218 314 5 0 0 0 - - -;
#X obj 409 410 osc~;
#X obj 422 282 unpack 0 0;
#X obj 443 455 *~;
#X obj 519 375 line~;
#X obj 519 353 pack 0 10;
#X floatatom 519 334 5 0 0 0 - - -;
#X obj 407 333 mtof;
#X obj 408 387 line~;
#X obj 407 359 pack 0 1;
#X floatatom 408 310 5 0 0 0 - - -;
#X obj 602 408 osc~;
#X obj 615 280 unpack 0 0;
#X obj 636 453 *~;
#X obj 712 373 line~;
#X obj 712 351 pack 0 10;
#X floatatom 712 332 5 0 0 0 - - -;
#X obj 600 331 mtof;
#X obj 601 385 line~;
#X obj 600 357 pack 0 1;
#X floatatom 601 308 5 0 0 0 - - -;
#X obj 26 140 pack;
#X obj 25 116 makenote 0.25 100;
#X obj 607 46 inlet;
#X text 653 71 umslag (envelope);
#X obj 418 155 f;
#X text 469 89 procent;
#X text 653 96 procent;
#X obj 422 183 *;
#X obj 426 126 t b f;
#X obj 453 155 / 100;
#X floatatom 424 205 5 0 0 0 - - -;
#X floatatom 428 69 5 0 0 0 - - -;
#X obj 595 145 f;
#X obj 599 173 *;
#X obj 603 116 t b f;
#X obj 630 145 / 100;
#X floatatom 601 195 5 0 0 0 - - -;
#X floatatom 607 70 5 0 0 0 - - -;
#X obj 25 225 route 1 2 3 4;
#X connect 0 0 1 0;
#X connect 1 0 52 0;
#X connect 2 0 3 0;
#X connect 3 0 52 2;
#X connect 3 0 55 0;
#X connect 3 0 63 0;
#X connect 7 0 13 0;
#X connect 8 0 62 0;
#X connect 10 0 11 0;
#X connect 10 1 11 1;
#X connect 10 2 11 2;
#X connect 11 0 69 0;
#X connect 12 0 20 0;
#X connect 12 1 16 0;
#X connect 13 0 6 0;
#X connect 14 0 13 1;
#X connect 15 0 14 0;
#X connect 16 0 15 0;
#X connect 17 0 19 0;
#X connect 18 0 7 0;
#X connect 19 0 18 0;
#X connect 20 0 17 0;
#X connect 21 0 23 0;
#X connect 22 0 30 0;
#X connect 22 1 26 0;
#X connect 23 0 6 0;
#X connect 24 0 23 1;
#X connect 25 0 24 0;
#X connect 26 0 25 0;
#X connect 27 0 29 0;
#X connect 28 0 21 0;
#X connect 29 0 28 0;
#X connect 30 0 27 0;
#X connect 31 0 33 0;
#X connect 32 0 40 0;
#X connect 32 1 36 0;
#X connect 33 0 6 0;
#X connect 34 0 33 1;
#X connect 35 0 34 0;
#X connect 36 0 35 0;
#X connect 37 0 39 0;
#X connect 38 0 31 0;
#X connect 39 0 38 0;
#X connect 40 0 37 0;
#X connect 41 0 43 0;
#X connect 42 0 50 0;
#X connect 42 1 46 0;
#X connect 43 0 6 0;
#X connect 44 0 43 1;
#X connect 45 0 44 0;
#X connect 46 0 45 0;
#X connect 47 0 49 0;
#X connect 48 0 41 0;
#X connect 49 0 48 0;
#X connect 50 0 47 0;
#X connect 51 0 10 0;
#X connect 52 0 51 0;
#X connect 52 1 51 1;
#X connect 53 0 68 0;
#X connect 55 0 58 0;
#X connect 58 0 61 0;
#X connect 59 0 55 0;
#X connect 59 1 60 0;
#X connect 60 0 58 1;
#X connect 61 0 19 1;
#X connect 61 0 29 1;
#X connect 61 0 39 1;
#X connect 61 0 49 1;
#X connect 62 0 59 0;
#X connect 63 0 64 0;
#X connect 64 0 67 0;
#X connect 65 0 63 0;
#X connect 65 1 66 0;
#X connect 66 0 64 1;
#X connect 67 0 45 1;
#X connect 67 0 35 1;
#X connect 67 0 25 1;
#X connect 67 0 15 1;
#X connect 68 0 65 0;
#X connect 69 0 12 0;
#X connect 69 1 22 0;
#X connect 69 2 32 0;
#X connect 69 3 42 0;
#X restore 35 416 pd hljodgervill;
#X obj 35 197 metro 666;
#X obj 35 108 tgl 15 1 empty empty motor 17 7 0 10 -24198 -1 -1 1 1
;
#X obj 35 220 bng 15 250 50 0 empty empty empty 17 7 0 10 -262144 -1
-1;
#X floatatom 118 183 5 0 0 0 - - -;
#X obj 35 273 random;
#X floatatom 118 259 5 0 0 0 - - -;
#X obj 35 374 +;
#X floatatom 35 296 5 0 0 0 - - -;
#X floatatom 117 360 5 0 0 0 - - -;
#X floatatom 35 395 5 0 0 0 - - -;
#X floatatom 402 402 5 0 0 0 - - -;
#X floatatom 459 402 5 0 0 0 - - -;
#X obj 459 147 vsl 32 193 1 100 0 1 empty empty umslag 0 -9 0 10 -62784
-1 -1 200 1;
#X obj 346 147 vsl 32 193 22 1000 1 1 empty empty lengd 0 -9 0 10 -62784
-1 -1 0 1;
#X floatatom 346 402 5 0 0 0 - - -;
#X obj 121 145 hsl 193 32 2222 11 1 1 empty empty hradi -2 -8 0 10
-62784 -1 -1 9400 1;
#X obj 121 221 hsl 193 32 1 127 0 1 empty empty tonsvid -2 -8 0 10
-62784 -1 -1 12400 1;
#X obj 120 293 hsl 193 32 1 127 0 1 empty empty tonflutningur -2 -8
0 10 -62784 -1 -1 2800 1;
#X text 42 536 G;
#X text 34 539 G;
#X text 51 536 G;
#X text 59 539 G;
#X text 31 546 G;
#X text 30 554 G;
#X text 30 563 G;
#X text 34 572 G;
#X text 48 576 G;
#X text 41 575 G;
#X text 56 576 G;
#X text 56 567 G;
#X text 66 559 G;
#X text 57 559 G;
#X text 49 559 G;
#X text 284 564 nidurhal: slatur.is -> gagnasafn -> pd -> garnaflaekja
;
#X obj 117 336 int;
#X connect 1 0 0 0;
#X connect 1 0 0 1;
#X connect 2 0 1 1;
#X connect 3 0 2 0;
#X connect 4 0 5 0;
#X connect 5 0 3 0;
#X connect 12 0 26 0;
#X connect 15 0 1 0;
#X connect 16 0 18 0;
#X connect 17 0 16 0;
#X connect 18 0 20 0;
#X connect 19 0 16 1;
#X connect 20 0 23 0;
#X connect 21 0 20 1;
#X connect 22 0 25 0;
#X connect 23 0 22 0;
#X connect 24 0 22 1;
#X connect 25 0 15 0;
#X connect 26 0 15 2;
#X connect 27 0 15 3;
#X connect 28 0 27 0;
#X connect 29 0 30 0;
#X connect 30 0 15 1;
#X connect 31 0 19 0;
#X connect 32 0 21 0;
#X connect 33 0 50 0;
#X connect 50 0 24 0;
