#N canvas 178 27 680 607 10;
#X obj 35 485 dac~;
#X obj 34 449 *~;
#X obj 559 432 line~;
#X obj 559 410 pack 0 10;
#X obj 559 255 vsl 65 128 0 1 0 1 empty empty Styrkur 0 -9 0 10 -24198
-1 -1 0 1;
#X floatatom 559 391 5 0 0 0 - - -;
#X obj 5 8 cnv 15 666 77 empty empty empty 20 12 0 14 -258699 -66577
0;
#X obj 34 124 adc~;
#N canvas 485 128 279 236 frumstilling 0;
#X obj 76 61 loadbang;
#X msg 76 122 \; pd dsp 1;
#X connect 0 0 1 0;
#X restore 560 115 pd frumstilling;
#N canvas 537 253 326 339 styrk 0;
#X obj 41 21 inlet~;
#X obj 42 72 env~ 8094;
#X floatatom 42 103 5 0 0 0 - - -;
#X obj 42 130 - 100;
#X floatatom 42 169 5 0 0 0 - - -;
#X obj 109 128 vu 15 120 empty empty -1 -8 0 8 -66577 -1 1 0;
#X connect 0 0 1 0;
#X connect 1 0 2 0;
#X connect 2 0 3 0;
#X connect 3 0 4 0;
#X connect 4 0 5 0;
#X coords 0 -1 1 1 55 155 1 100 100;
#X restore 58 165 pd styrk;
#X obj 8 523 cnv 15 666 77 empty empty empty 20 12 0 14 -258699 -66577
0;
#X text 382 581 (cc) Aki Asgeirsson 2008 - aki@slatur.is;
#X text 478 546 Toelvutonlist med PureData;
#X text 575 530 GarnaFlaekja;
#X text 16 17 TonHaedarBreyting (Harmonizer);
#X text 18 39 Hljodmerki er tonflutt;
#N canvas 110 47 662 621 harmo 0;
#X obj 64 544 hip~ 5;
#X obj 123 422 *~;
#X obj 212 359 line~;
#X obj 212 335 pack 0 200;
#X obj 254 201 moses 1;
#X msg 253 224 1;
#X obj 64 226 exp;
#X obj 64 331 /;
#X obj 180 268 * 0.001;
#X obj 323 428 line~;
#X obj 324 402 pack 0 200;
#X text 366 326 delay (msec);
#X obj 123 446 +~;
#X msg 324 378 1;
#X obj 324 354 moses 1.5;
#X obj 64 469 cos~;
#X obj 64 493 *~;
#X obj 64 520 +~;
#X obj 143 384 wrap~;
#X obj 266 422 *~;
#X obj 266 452 +~;
#X obj 209 477 cos~;
#X obj 209 501 *~;
#X obj 180 292 t b f;
#X floatatom 64 355 0 0 0 0 - - -;
#X obj 64 380 phasor~ 0;
#X obj 143 360 +~ 0.5;
#X obj 64 421 -~ 0.5;
#X obj 64 445 *~ 0.5;
#X obj 209 421 -~ 0.5;
#X obj 209 451 *~ 0.5;
#X floatatom 253 248 0 0 0 0 - - -;
#X obj 64 274 - 1;
#X obj 64 202 * 0.05776;
#X obj 64 298 * -1;
#X text 105 160 <-- transposition;
#X text 110 178 (halftones);
#X text 130 245 speed;
#X text 129 258 change;
#X text 336 170 <--window (msec);
#X text 96 325 tape head;
#X text 97 337 rotation speed;
#X obj 18 96 inlet~;
#X obj 64 565 outlet~;
#X obj 64 161 inlet;
#X text 69 92 HARMONISER;
#X msg 262 144 100;
#X obj 262 121 loadbang;
#X obj 18 116 delwrite~ bob 2000;
#X obj 123 469 vd~ bob;
#X obj 266 479 vd~ bob;
#X floatatom 325 329 5 0 0 0 - - -;
#X floatatom 286 170 5 0 0 0 - - -;
#X connect 0 0 43 0;
#X connect 1 0 12 0;
#X connect 2 0 1 1;
#X connect 2 0 19 1;
#X connect 3 0 2 0;
#X connect 4 0 5 0;
#X connect 4 1 31 0;
#X connect 5 0 31 0;
#X connect 6 0 32 0;
#X connect 7 0 24 0;
#X connect 8 0 23 0;
#X connect 9 0 12 1;
#X connect 9 0 20 1;
#X connect 10 0 9 0;
#X connect 12 0 49 0;
#X connect 13 0 10 0;
#X connect 14 0 13 0;
#X connect 14 1 10 0;
#X connect 15 0 16 0;
#X connect 16 0 17 0;
#X connect 17 0 0 0;
#X connect 18 0 19 0;
#X connect 18 0 29 0;
#X connect 19 0 20 0;
#X connect 20 0 50 0;
#X connect 21 0 22 0;
#X connect 22 0 17 1;
#X connect 23 0 7 0;
#X connect 23 1 7 1;
#X connect 24 0 25 0;
#X connect 25 0 1 0;
#X connect 25 0 27 0;
#X connect 25 0 26 0;
#X connect 26 0 18 0;
#X connect 27 0 28 0;
#X connect 28 0 15 0;
#X connect 29 0 30 0;
#X connect 30 0 21 0;
#X connect 31 0 3 0;
#X connect 31 0 8 0;
#X connect 32 0 34 0;
#X connect 33 0 6 0;
#X connect 34 0 7 0;
#X connect 42 0 48 0;
#X connect 44 0 33 0;
#X connect 46 0 4 0;
#X connect 47 0 46 0;
#X connect 49 0 16 1;
#X connect 50 0 22 1;
#X connect 51 0 14 0;
#X connect 52 0 4 0;
#X restore 35 397 pd harmo;
#X obj 284 177 vsl 65 193 -24 24 0 1 empty empty TonHaedarBreyting
0 -9 0 10 -62784 -1 -1 6300 1;
#X floatatom 284 383 5 0 0 0 - - -;
#X text 42 536 G;
#X text 34 539 G;
#X text 51 536 G;
#X text 59 539 G;
#X text 31 546 G;
#X text 30 554 G;
#X text 30 563 G;
#X text 34 572 G;
#X text 48 576 G;
#X text 41 575 G;
#X text 56 576 G;
#X text 56 567 G;
#X text 66 559 G;
#X text 57 559 G;
#X text 49 559 G;
#X text 284 564 nidurhal: slatur.is -> gagnasafn -> pd -> garnaflaekja
;
#X text 416 35 IKORNI eda SKRYMSLI;
#X connect 1 0 0 0;
#X connect 1 0 0 1;
#X connect 2 0 1 1;
#X connect 3 0 2 0;
#X connect 4 0 5 0;
#X connect 5 0 3 0;
#X connect 7 0 9 0;
#X connect 7 0 16 0;
#X connect 16 0 1 0;
#X connect 17 0 18 0;
#X connect 18 0 16 1;
